<svg xmlns="http://www.w3.org/2000/svg" xmlns:xlink="http://www.w3.org/1999/xlink" width="250" zoomAndPan="magnify" viewBox="0 0 187.5 37.5" height="50" preserveAspectRatio="xMidYMid meet" version="1.0"><defs><g/><clipPath id="251cb971a5"><path d="M 12 7 L 65 7 L 65 33.410156 L 12 33.410156 Z M 12 7 " clip-rule="nonzero"/></clipPath><clipPath id="9b9e2169b5"><path d="M 28 23 L 49 23 L 49 33.410156 L 28 33.410156 Z M 28 23 " clip-rule="nonzero"/></clipPath><clipPath id="08b9f846ce"><path d="M 36 31 L 41 31 L 41 33.410156 L 36 33.410156 Z M 36 31 " clip-rule="nonzero"/></clipPath><clipPath id="d09f4144b4"><path d="M 35 30 L 42 30 L 42 33.410156 L 35 33.410156 Z M 35 30 " clip-rule="nonzero"/></clipPath><clipPath id="c413ad0a64"><path d="M 13 8 L 52 8 L 52 33.410156 L 13 33.410156 Z M 13 8 " clip-rule="nonzero"/></clipPath><clipPath id="89d1aa11ec"><path d="M 14 9 L 52 9 L 52 33.410156 L 14 33.410156 Z M 14 9 " clip-rule="nonzero"/></clipPath><clipPath id="bee7736911"><path d="M 15 10 L 51 10 L 51 33.410156 L 15 33.410156 Z M 15 10 " clip-rule="nonzero"/></clipPath><clipPath id="c08aef088e"><path d="M 17 11 L 50 11 L 50 33.410156 L 17 33.410156 Z M 17 11 " clip-rule="nonzero"/></clipPath><clipPath id="52e9dac5dd"><path d="M 18 12 L 50 12 L 50 33.410156 L 18 33.410156 Z M 18 12 " clip-rule="nonzero"/></clipPath><clipPath id="fc63831f2e"><path d="M 18 13 L 49 13 L 49 33.410156 L 18 33.410156 Z M 18 13 " clip-rule="nonzero"/></clipPath><clipPath id="8d01625346"><path d="M 27 18 L 56 18 L 56 33.410156 L 27 33.410156 Z M 27 18 " clip-rule="nonzero"/></clipPath><clipPath id="00eaacaf9a"><path d="M 27 19 L 55 19 L 55 33.410156 L 27 33.410156 Z M 27 19 " clip-rule="nonzero"/></clipPath><clipPath id="89cbdb54df"><path d="M 28 19 L 55 19 L 55 33.410156 L 28 33.410156 Z M 28 19 " clip-rule="nonzero"/></clipPath><clipPath id="86f2de8875"><path d="M 28 20 L 54 20 L 54 33.410156 L 28 33.410156 Z M 28 20 " clip-rule="nonzero"/></clipPath><clipPath id="d5bdd172dd"><path d="M 29 21 L 53 21 L 53 33.410156 L 29 33.410156 Z M 29 21 " clip-rule="nonzero"/></clipPath><clipPath id="b932d24f06"><path d="M 29 21 L 52 21 L 52 33.410156 L 29 33.410156 Z M 29 21 " clip-rule="nonzero"/></clipPath></defs><g clip-path="url(#251cb971a5)"><path fill="#a40000" d="M 59.320312 48.59375 C 50.835938 60.15625 34.578125 62.652344 23.011719 54.167969 C 11.445312 45.679688 8.949219 29.425781 17.4375 17.859375 C 25.925781 6.292969 42.179688 3.796875 53.746094 12.285156 C 65.3125 20.769531 67.808594 37.027344 59.320312 48.59375 Z M 59.320312 48.59375 " fill-opacity="1" fill-rule="nonzero"/></g><g clip-path="url(#9b9e2169b5)"><path fill="#4d0000" d="M 46.351562 39.0625 C 43.089844 43.503906 36.847656 44.460938 32.40625 41.203125 C 27.964844 37.945312 27.003906 31.703125 30.265625 27.257812 C 33.523438 22.8125 39.765625 21.859375 44.207031 25.117188 C 48.652344 28.375 49.613281 34.621094 46.347656 39.0625 Z M 46.351562 39.0625 " fill-opacity="1" fill-rule="nonzero"/></g><g clip-path="url(#08b9f846ce)"><path fill="#a40000" d="M 39.714844 34.25 C 39.125 35.050781 38 35.222656 37.195312 34.636719 C 36.394531 34.046875 36.222656 32.921875 36.8125 32.121094 C 37.398438 31.320312 38.523438 31.148438 39.324219 31.734375 C 40.128906 32.324219 40.300781 33.449219 39.714844 34.25 Z M 39.714844 34.25 " fill-opacity="1" fill-rule="nonzero"/></g><g clip-path="url(#d09f4144b4)"><path fill="#a40000" d="M 35.707031 31.3125 C 34.671875 32.71875 34.980469 34.703125 36.386719 35.738281 C 37.792969 36.773438 39.78125 36.46875 40.8125 35.058594 C 41.847656 33.652344 41.542969 31.664062 40.132812 30.632812 C 38.726562 29.597656 36.738281 29.902344 35.707031 31.308594 Z M 35.839844 31.410156 C 36.820312 30.078125 38.703125 29.785156 40.039062 30.765625 C 41.371094 31.746094 41.660156 33.628906 40.679688 34.964844 C 39.703125 36.296875 37.820312 36.585938 36.484375 35.605469 C 35.152344 34.628906 34.859375 32.746094 35.839844 31.414062 Z M 35.839844 31.410156 " fill-opacity="1" fill-rule="nonzero"/></g><g clip-path="url(#c413ad0a64)"><path fill="#4d0000" d="M 18.488281 18.492188 C 26.230469 7.941406 40.867188 5.378906 51.695312 12.441406 L 51.828125 12.261719 C 40.898438 5.128906 26.121094 7.710938 18.308594 18.363281 C 10.5 29.011719 12.464844 43.882812 22.546875 52.164062 L 22.679688 51.984375 C 12.691406 43.773438 10.746094 29.042969 18.484375 18.492188 Z M 18.488281 18.492188 " fill-opacity="1" fill-rule="nonzero"/></g><g clip-path="url(#89d1aa11ec)"><path fill="#4d0000" d="M 19.464844 19.023438 C 26.828125 8.984375 40.769531 6.558594 51.0625 13.308594 L 51.191406 13.132812 C 40.800781 6.308594 26.722656 8.757812 19.285156 18.890625 C 11.851562 29.027344 13.738281 43.191406 23.363281 51.058594 L 23.492188 50.878906 C 13.964844 43.085938 12.097656 29.0625 19.464844 19.023438 Z M 19.464844 19.023438 " fill-opacity="1" fill-rule="nonzero"/></g><g clip-path="url(#bee7736911)"><path fill="#4d0000" d="M 20.3125 19.847656 C 27.292969 10.328125 40.5 8.015625 50.269531 14.386719 L 50.398438 14.207031 C 40.53125 7.765625 27.1875 10.097656 20.132812 19.714844 C 13.074219 29.328125 14.851562 42.757812 23.960938 50.242188 L 24.09375 50.058594 C 15.082031 42.652344 13.324219 29.363281 20.308594 19.847656 Z M 20.3125 19.847656 " fill-opacity="1" fill-rule="nonzero"/></g><g clip-path="url(#c08aef088e)"><path fill="#4d0000" d="M 21.316406 20.566406 C 27.910156 11.582031 40.347656 9.359375 49.609375 15.289062 L 49.742188 15.109375 C 40.378906 9.109375 27.804688 11.351562 21.136719 20.4375 C 14.46875 29.523438 16.105469 42.191406 24.636719 49.324219 L 24.765625 49.144531 C 16.335938 42.085938 14.71875 29.554688 21.3125 20.566406 Z M 21.316406 20.566406 " fill-opacity="1" fill-rule="nonzero"/></g><g clip-path="url(#52e9dac5dd)"><path fill="#4d0000" d="M 22.152344 21.023438 C 28.425781 12.472656 40.261719 10.371094 49.0625 16.03125 L 49.195312 15.851562 C 40.292969 10.121094 28.316406 12.246094 21.972656 20.894531 C 15.628906 29.535156 17.195312 41.601562 25.332031 48.371094 L 25.464844 48.191406 C 17.425781 41.492188 15.878906 29.570312 22.152344 21.023438 Z M 22.152344 21.023438 " fill-opacity="1" fill-rule="nonzero"/></g><g clip-path="url(#fc63831f2e)"><path fill="#4d0000" d="M 22.875 21.726562 C 28.820312 13.625 40.03125 11.621094 48.382812 16.957031 L 48.515625 16.777344 C 40.0625 11.371094 28.714844 13.394531 22.695312 21.597656 C 16.679688 29.796875 18.148438 41.230469 25.84375 47.671875 L 25.976562 47.492188 C 18.382812 41.125 16.929688 29.832031 22.875 21.726562 Z M 22.875 21.726562 " fill-opacity="1" fill-rule="nonzero"/></g><g clip-path="url(#8d01625346)"><path fill="#4d0000" d="M 48.75 19.289062 C 48.40625 19.039062 48.054688 18.808594 47.703125 18.585938 L 47.570312 18.765625 C 47.921875 18.988281 48.273438 19.21875 48.617188 19.46875 C 56.238281 25.0625 57.890625 35.816406 52.296875 43.4375 C 46.703125 51.0625 35.949219 52.710938 28.328125 47.117188 C 27.988281 46.867188 27.660156 46.601562 27.34375 46.332031 L 27.210938 46.511719 C 27.53125 46.78125 27.855469 47.046875 28.199219 47.296875 C 35.921875 52.964844 46.808594 51.289062 52.476562 43.570312 C 58.140625 35.847656 56.464844 24.957031 48.746094 19.289062 Z M 48.75 19.289062 " fill-opacity="1" fill-rule="nonzero"/></g><g clip-path="url(#00eaacaf9a)"><path fill="#4d0000" d="M 48.222656 19.847656 C 47.90625 19.613281 47.582031 19.398438 47.253906 19.195312 L 47.125 19.371094 C 47.449219 19.578125 47.773438 19.792969 48.09375 20.027344 C 55.332031 25.335938 56.898438 35.546875 51.585938 42.785156 C 46.277344 50.023438 36.0625 51.59375 28.824219 46.28125 C 28.507812 46.050781 28.207031 45.804688 27.910156 45.554688 L 27.78125 45.734375 C 28.074219 45.984375 28.378906 46.230469 28.691406 46.460938 C 36.03125 51.84375 46.382812 50.257812 51.765625 42.917969 C 57.152344 35.585938 55.5625 25.234375 48.226562 19.847656 Z M 48.222656 19.847656 " fill-opacity="1" fill-rule="nonzero"/></g><g clip-path="url(#89cbdb54df)"><path fill="#4d0000" d="M 47.667969 20.597656 C 47.351562 20.367188 47.027344 20.152344 46.703125 19.949219 L 46.570312 20.128906 C 46.898438 20.328125 47.21875 20.542969 47.535156 20.777344 C 54.410156 25.820312 55.898438 35.515625 50.855469 42.394531 C 45.8125 49.265625 36.113281 50.757812 29.238281 45.710938 C 28.921875 45.480469 28.625 45.234375 28.328125 44.984375 L 28.199219 45.164062 C 28.492188 45.414062 28.792969 45.660156 29.109375 45.890625 C 36.082031 51.007812 45.917969 49.496094 51.035156 42.523438 C 56.152344 35.550781 54.640625 25.714844 47.667969 20.597656 Z M 47.667969 20.597656 " fill-opacity="1" fill-rule="nonzero"/></g><g clip-path="url(#86f2de8875)"><path fill="#4d0000" d="M 47.28125 21.273438 C 46.941406 21.023438 46.59375 20.792969 46.242188 20.578125 L 46.109375 20.757812 C 46.460938 20.972656 46.8125 21.199219 47.152344 21.449219 C 53.679688 26.242188 55.09375 35.449219 50.304688 41.980469 C 45.511719 48.507812 36.304688 49.921875 29.773438 45.128906 C 29.433594 44.878906 29.113281 44.617188 28.800781 44.34375 L 28.667969 44.523438 C 28.980469 44.792969 29.304688 45.058594 29.644531 45.308594 C 36.269531 50.171875 45.621094 48.738281 50.480469 42.113281 C 55.34375 35.480469 53.910156 26.132812 47.28125 21.273438 Z M 47.28125 21.273438 " fill-opacity="1" fill-rule="nonzero"/></g><g clip-path="url(#d5bdd172dd)"><path fill="#4d0000" d="M 46.835938 21.75 C 46.515625 21.515625 46.191406 21.300781 45.859375 21.097656 L 45.726562 21.277344 C 46.058594 21.480469 46.382812 21.691406 46.703125 21.925781 C 52.902344 26.476562 54.246094 35.222656 49.695312 41.417969 C 45.148438 47.621094 36.402344 48.964844 30.203125 44.414062 C 29.886719 44.179688 29.582031 43.933594 29.289062 43.679688 L 29.160156 43.855469 C 29.453125 44.109375 29.753906 44.359375 30.070312 44.59375 C 36.371094 49.210938 45.253906 47.851562 49.875 41.550781 C 54.496094 35.25 53.132812 26.371094 46.835938 21.746094 Z M 46.835938 21.75 " fill-opacity="1" fill-rule="nonzero"/></g><g clip-path="url(#b932d24f06)"><path fill="#4d0000" d="M 46.359375 22.394531 C 46.039062 22.164062 45.714844 21.945312 45.382812 21.746094 L 45.25 21.921875 C 45.582031 22.125 45.910156 22.335938 46.226562 22.570312 C 52.113281 26.890625 53.390625 35.195312 49.070312 41.082031 C 44.75 46.96875 36.445312 48.246094 30.558594 43.925781 C 30.238281 43.691406 29.9375 43.445312 29.648438 43.191406 L 29.515625 43.367188 C 29.808594 43.625 30.109375 43.871094 30.425781 44.105469 C 36.414062 48.496094 44.855469 47.199219 49.246094 41.210938 C 53.640625 35.226562 52.34375 26.78125 46.359375 22.394531 Z M 46.359375 22.394531 " fill-opacity="1" fill-rule="nonzero"/></g><g fill="#a40000" fill-opacity="1"><g transform="translate(67.596586, 31.177305)"><g><path d="M 8.71875 0.203125 C 8.03125 0.203125 7.226562 0.15625 6.3125 0.0625 C 5.394531 -0.03125 4.46875 -0.15625 3.53125 -0.3125 C 2.601562 -0.46875 1.769531 -0.65625 1.03125 -0.875 C 0.707031 -1 0.546875 -1.253906 0.546875 -1.640625 C 0.535156 -2.378906 0.515625 -3.15625 0.484375 -3.96875 C 0.460938 -4.78125 0.441406 -5.570312 0.421875 -6.34375 C 0.421875 -6.738281 0.5625 -6.972656 0.84375 -7.046875 C 1.125 -7.117188 1.375 -7.039062 1.59375 -6.8125 C 2.394531 -6.101562 3.300781 -5.582031 4.3125 -5.25 C 5.332031 -4.925781 6.359375 -4.765625 7.390625 -4.765625 C 8.242188 -4.765625 8.867188 -4.898438 9.265625 -5.171875 C 9.671875 -5.453125 9.875 -5.800781 9.875 -6.21875 C 9.875 -6.625 9.664062 -6.953125 9.25 -7.203125 C 8.832031 -7.460938 8.285156 -7.695312 7.609375 -7.90625 C 6.941406 -8.113281 6.234375 -8.332031 5.484375 -8.5625 C 4.734375 -8.800781 4.019531 -9.101562 3.34375 -9.46875 C 2.675781 -9.84375 2.128906 -10.3125 1.703125 -10.875 C 1.273438 -11.4375 1.0625 -12.15625 1.0625 -13.03125 C 1.0625 -14.695312 1.738281 -15.914062 3.09375 -16.6875 C 4.457031 -17.457031 6.34375 -17.84375 8.75 -17.84375 C 9.414062 -17.84375 10.128906 -17.8125 10.890625 -17.75 C 11.660156 -17.695312 12.421875 -17.609375 13.171875 -17.484375 C 13.929688 -17.367188 14.613281 -17.21875 15.21875 -17.03125 C 15.539062 -16.894531 15.71875 -16.671875 15.75 -16.359375 C 15.78125 -15.753906 15.828125 -15.082031 15.890625 -14.34375 C 15.960938 -13.601562 16.007812 -12.929688 16.03125 -12.328125 C 16.0625 -11.921875 15.953125 -11.671875 15.703125 -11.578125 C 15.453125 -11.484375 15.21875 -11.546875 15 -11.765625 C 14.34375 -12.203125 13.601562 -12.546875 12.78125 -12.796875 C 11.96875 -13.054688 11.191406 -13.191406 10.453125 -13.203125 C 9.597656 -13.222656 8.882812 -13.125 8.3125 -12.90625 C 7.738281 -12.6875 7.453125 -12.367188 7.453125 -11.953125 C 7.453125 -11.609375 7.625 -11.328125 7.96875 -11.109375 C 8.320312 -10.890625 8.785156 -10.695312 9.359375 -10.53125 C 9.941406 -10.363281 10.570312 -10.1875 11.25 -10 C 11.9375 -9.820312 12.625 -9.609375 13.3125 -9.359375 C 14 -9.117188 14.625 -8.804688 15.1875 -8.421875 C 15.757812 -8.046875 16.21875 -7.582031 16.5625 -7.03125 C 16.914062 -6.476562 17.09375 -5.796875 17.09375 -4.984375 C 17.070312 -3.304688 16.332031 -2.019531 14.875 -1.125 C 13.425781 -0.238281 11.375 0.203125 8.71875 0.203125 Z M 8.71875 0.203125 "/></g></g></g><g fill="#a40000" fill-opacity="1"><g transform="translate(87.05517, 31.177305)"><g><path d="M 9.609375 0.203125 C 7.773438 0.203125 6.15625 -0.0546875 4.75 -0.578125 C 3.34375 -1.097656 2.25 -1.960938 1.46875 -3.171875 C 0.6875 -4.378906 0.296875 -6.007812 0.296875 -8.0625 C 0.296875 -10.09375 0.6875 -11.832031 1.46875 -13.28125 C 2.25 -14.738281 3.335938 -15.863281 4.734375 -16.65625 C 6.128906 -17.445312 7.753906 -17.84375 9.609375 -17.84375 C 11.472656 -17.84375 13.097656 -17.453125 14.484375 -16.671875 C 15.878906 -15.890625 16.960938 -14.765625 17.734375 -13.296875 C 18.515625 -11.835938 18.90625 -10.09375 18.90625 -8.0625 C 18.90625 -6.007812 18.515625 -4.378906 17.734375 -3.171875 C 16.953125 -1.960938 15.863281 -1.097656 14.46875 -0.578125 C 13.070312 -0.0546875 11.453125 0.203125 9.609375 0.203125 Z M 9.609375 -4.96875 C 10.390625 -4.96875 11.023438 -5.222656 11.515625 -5.734375 C 12.003906 -6.242188 12.25 -7.101562 12.25 -8.3125 C 12.25 -9.132812 12.140625 -9.875 11.921875 -10.53125 C 11.703125 -11.1875 11.394531 -11.707031 11 -12.09375 C 10.601562 -12.476562 10.140625 -12.671875 9.609375 -12.671875 C 9.066406 -12.671875 8.597656 -12.476562 8.203125 -12.09375 C 7.804688 -11.707031 7.5 -11.1875 7.28125 -10.53125 C 7.0625 -9.875 6.953125 -9.132812 6.953125 -8.3125 C 6.953125 -7.101562 7.195312 -6.242188 7.6875 -5.734375 C 8.1875 -5.222656 8.828125 -4.96875 9.609375 -4.96875 Z M 9.609375 -4.96875 "/></g></g></g><g fill="#a40000" fill-opacity="1"><g transform="translate(108.27812, 31.177305)"><g><path d="M 15.546875 0.203125 C 14.859375 0.203125 14.222656 0.0195312 13.640625 -0.34375 C 13.066406 -0.71875 12.535156 -1.191406 12.046875 -1.765625 C 11.554688 -2.347656 11.109375 -2.96875 10.703125 -3.625 C 10.304688 -4.28125 9.929688 -4.894531 9.578125 -5.46875 C 9.222656 -6.050781 8.890625 -6.523438 8.578125 -6.890625 C 8.265625 -7.265625 7.957031 -7.453125 7.65625 -7.453125 C 7.40625 -7.453125 7.222656 -7.269531 7.109375 -6.90625 C 7.003906 -6.550781 6.945312 -6.097656 6.9375 -5.546875 C 6.9375 -5.109375 6.957031 -4.59375 7 -4 C 7.050781 -3.414062 7.109375 -2.84375 7.171875 -2.28125 C 7.242188 -1.71875 7.296875 -1.242188 7.328125 -0.859375 C 7.367188 -0.609375 7.316406 -0.410156 7.171875 -0.265625 C 7.023438 -0.117188 6.835938 -0.03125 6.609375 0 C 6.234375 0.0507812 5.765625 0.078125 5.203125 0.078125 C 4.640625 0.0859375 4.179688 0.09375 3.828125 0.09375 C 3.515625 0.09375 3.097656 0.0859375 2.578125 0.078125 C 2.066406 0.078125 1.617188 0.0507812 1.234375 0 C 1.035156 -0.03125 0.863281 -0.113281 0.71875 -0.25 C 0.570312 -0.382812 0.5 -0.550781 0.5 -0.75 C 0.5 -2.769531 0.53125 -4.785156 0.59375 -6.796875 C 0.664062 -8.816406 0.753906 -10.707031 0.859375 -12.46875 C 0.972656 -14.238281 1.085938 -15.742188 1.203125 -16.984375 C 1.222656 -17.171875 1.296875 -17.316406 1.421875 -17.421875 C 1.546875 -17.535156 1.703125 -17.609375 1.890625 -17.640625 C 2.109375 -17.671875 2.414062 -17.695312 2.8125 -17.71875 C 3.21875 -17.738281 3.515625 -17.75 3.703125 -17.75 C 3.921875 -17.75 4.179688 -17.738281 4.484375 -17.71875 C 4.785156 -17.695312 5.0625 -17.671875 5.3125 -17.640625 C 5.6875 -17.609375 5.988281 -17.515625 6.21875 -17.359375 C 6.457031 -17.210938 6.710938 -16.972656 6.984375 -16.640625 C 7.203125 -16.242188 7.453125 -15.78125 7.734375 -15.25 C 8.023438 -14.726562 8.335938 -14.1875 8.671875 -13.625 C 9.003906 -13.070312 9.335938 -12.554688 9.671875 -12.078125 C 10.015625 -11.597656 10.335938 -11.207031 10.640625 -10.90625 C 10.941406 -10.601562 11.207031 -10.453125 11.4375 -10.453125 C 11.695312 -10.453125 11.863281 -10.679688 11.9375 -11.140625 C 12.007812 -11.597656 12.03125 -12.164062 12 -12.84375 C 11.96875 -13.519531 11.898438 -14.207031 11.796875 -14.90625 C 11.691406 -15.601562 11.59375 -16.203125 11.5 -16.703125 C 11.445312 -16.941406 11.488281 -17.148438 11.625 -17.328125 C 11.769531 -17.503906 11.960938 -17.609375 12.203125 -17.640625 C 12.515625 -17.671875 12.890625 -17.695312 13.328125 -17.71875 C 13.765625 -17.738281 14.132812 -17.75 14.4375 -17.75 C 14.726562 -17.75 15.09375 -17.738281 15.53125 -17.71875 C 15.976562 -17.695312 16.367188 -17.671875 16.703125 -17.640625 C 16.890625 -17.617188 17.054688 -17.550781 17.203125 -17.4375 C 17.347656 -17.320312 17.425781 -17.171875 17.4375 -16.984375 C 17.59375 -15.304688 17.734375 -13.296875 17.859375 -10.953125 C 17.984375 -8.617188 18.054688 -6.050781 18.078125 -3.25 C 18.085938 -2.28125 17.90625 -1.460938 17.53125 -0.796875 C 17.15625 -0.128906 16.492188 0.203125 15.546875 0.203125 Z M 15.546875 0.203125 "/></g></g></g><g fill="#a40000" fill-opacity="1"><g transform="translate(128.870938, 31.177305)"><g><path d="M 4 0.09375 C 3.78125 0.09375 3.492188 0.0859375 3.140625 0.078125 C 2.796875 0.078125 2.445312 0.0664062 2.09375 0.046875 C 1.738281 0.0351562 1.441406 0.0195312 1.203125 0 C 1.023438 -0.03125 0.863281 -0.109375 0.71875 -0.234375 C 0.570312 -0.359375 0.5 -0.53125 0.5 -0.75 C 0.5 -2.769531 0.523438 -4.785156 0.578125 -6.796875 C 0.628906 -8.816406 0.695312 -10.707031 0.78125 -12.46875 C 0.863281 -14.238281 0.957031 -15.742188 1.0625 -16.984375 C 1.070312 -17.335938 1.296875 -17.554688 1.734375 -17.640625 C 2.054688 -17.671875 2.453125 -17.695312 2.921875 -17.71875 C 3.390625 -17.738281 3.757812 -17.75 4.03125 -17.75 C 4.320312 -17.75 4.691406 -17.738281 5.140625 -17.71875 C 5.597656 -17.695312 5.976562 -17.671875 6.28125 -17.640625 C 6.71875 -17.554688 6.941406 -17.335938 6.953125 -16.984375 C 7.066406 -15.742188 7.164062 -14.238281 7.25 -12.46875 C 7.34375 -10.707031 7.410156 -8.816406 7.453125 -6.796875 C 7.503906 -4.785156 7.53125 -2.769531 7.53125 -0.75 C 7.53125 -0.53125 7.453125 -0.359375 7.296875 -0.234375 C 7.148438 -0.109375 6.988281 -0.03125 6.8125 0 C 6.570312 0.0195312 6.273438 0.0351562 5.921875 0.046875 C 5.566406 0.0664062 5.21875 0.078125 4.875 0.078125 C 4.53125 0.0859375 4.238281 0.09375 4 0.09375 Z M 4 0.09375 "/></g></g></g><g fill="#a40000" fill-opacity="1"><g transform="translate(138.902791, 31.177305)"><g><path d="M 3.984375 0.09375 C 3.578125 0.09375 3.125 0.0820312 2.625 0.0625 C 2.132812 0.0507812 1.671875 0.03125 1.234375 0 C 1.035156 -0.03125 0.863281 -0.109375 0.71875 -0.234375 C 0.570312 -0.359375 0.5 -0.523438 0.5 -0.734375 C 0.5 -2.171875 0.515625 -3.640625 0.546875 -5.140625 C 0.585938 -6.648438 0.632812 -8.125 0.6875 -9.5625 C 0.75 -11 0.816406 -12.351562 0.890625 -13.625 C 0.972656 -14.90625 1.0625 -16.035156 1.15625 -17.015625 C 1.207031 -17.398438 1.453125 -17.609375 1.890625 -17.640625 C 2.242188 -17.660156 2.703125 -17.671875 3.265625 -17.671875 C 3.828125 -17.679688 4.425781 -17.691406 5.0625 -17.703125 C 5.707031 -17.710938 6.320312 -17.722656 6.90625 -17.734375 C 7.488281 -17.742188 7.992188 -17.75 8.421875 -17.75 C 9.003906 -17.75 9.6875 -17.75 10.46875 -17.75 C 11.25 -17.75 12.03125 -17.738281 12.8125 -17.71875 C 13.59375 -17.695312 14.257812 -17.671875 14.8125 -17.640625 C 15.25 -17.609375 15.492188 -17.375 15.546875 -16.9375 C 15.578125 -16.445312 15.601562 -15.878906 15.625 -15.234375 C 15.65625 -14.585938 15.679688 -13.9375 15.703125 -13.28125 C 15.734375 -12.625 15.75 -12.035156 15.75 -11.515625 C 15.769531 -11.234375 15.648438 -11.039062 15.390625 -10.9375 C 15.140625 -10.832031 14.914062 -10.898438 14.71875 -11.140625 C 14.0625 -11.910156 13.304688 -12.4375 12.453125 -12.71875 C 11.609375 -13.007812 10.625 -13.15625 9.5 -13.15625 C 8.675781 -13.15625 8.050781 -13.019531 7.625 -12.75 C 7.195312 -12.476562 6.984375 -12.132812 6.984375 -11.71875 L 6.984375 -11.546875 C 6.984375 -11.117188 7.179688 -10.773438 7.578125 -10.515625 C 7.984375 -10.253906 8.625 -10.125 9.5 -10.125 C 10.09375 -10.125 10.660156 -10.148438 11.203125 -10.203125 C 11.742188 -10.253906 12.328125 -10.316406 12.953125 -10.390625 C 13.148438 -10.421875 13.320312 -10.367188 13.46875 -10.234375 C 13.613281 -10.097656 13.691406 -9.921875 13.703125 -9.703125 C 13.742188 -9.285156 13.78125 -8.789062 13.8125 -8.21875 C 13.84375 -7.644531 13.867188 -7.140625 13.890625 -6.703125 C 13.898438 -6.398438 13.804688 -6.210938 13.609375 -6.140625 C 13.410156 -6.078125 13.21875 -6.125 13.03125 -6.28125 C 12.40625 -6.613281 11.765625 -6.847656 11.109375 -6.984375 C 10.453125 -7.128906 9.832031 -7.195312 9.25 -7.1875 C 8.40625 -7.164062 7.816406 -6.976562 7.484375 -6.625 C 7.148438 -6.269531 6.984375 -5.765625 6.984375 -5.109375 C 6.984375 -4.390625 7.070312 -3.644531 7.25 -2.875 C 7.4375 -2.101562 7.59375 -1.40625 7.71875 -0.78125 C 7.75 -0.582031 7.691406 -0.410156 7.546875 -0.265625 C 7.398438 -0.117188 7.226562 -0.03125 7.03125 0 C 6.644531 0.0507812 6.144531 0.078125 5.53125 0.078125 C 4.914062 0.0859375 4.398438 0.09375 3.984375 0.09375 Z M 3.984375 0.09375 "/></g></g></g><g fill="#a40000" fill-opacity="1"><g transform="translate(157.000296, 31.177305)"><g><path d="M 8.953125 0.09375 C 8.679688 0.09375 8.351562 0.0859375 7.96875 0.078125 C 7.582031 0.078125 7.195312 0.0664062 6.8125 0.046875 C 6.4375 0.0351562 6.113281 0.0195312 5.84375 0 C 5.65625 -0.03125 5.488281 -0.109375 5.34375 -0.234375 C 5.207031 -0.359375 5.148438 -0.515625 5.171875 -0.703125 C 5.304688 -1.691406 5.457031 -2.703125 5.625 -3.734375 C 5.800781 -4.773438 6.007812 -5.914062 6.25 -7.15625 C 6.28125 -7.289062 6.28125 -7.40625 6.25 -7.5 C 6.21875 -7.601562 6.125 -7.675781 5.96875 -7.71875 C 5.21875 -7.894531 4.503906 -8.273438 3.828125 -8.859375 C 3.160156 -9.441406 2.566406 -10.15625 2.046875 -11 C 1.535156 -11.851562 1.117188 -12.773438 0.796875 -13.765625 C 0.484375 -14.753906 0.285156 -15.753906 0.203125 -16.765625 C 0.171875 -17.265625 0.414062 -17.554688 0.9375 -17.640625 C 1.289062 -17.671875 1.703125 -17.695312 2.171875 -17.71875 C 2.648438 -17.738281 3.0625 -17.75 3.40625 -17.75 C 3.625 -17.75 3.914062 -17.742188 4.28125 -17.734375 C 4.65625 -17.722656 5.035156 -17.710938 5.421875 -17.703125 C 5.804688 -17.691406 6.132812 -17.671875 6.40625 -17.640625 C 6.625 -17.617188 6.796875 -17.535156 6.921875 -17.390625 C 7.054688 -17.253906 7.117188 -17.078125 7.109375 -16.859375 C 7.117188 -16.234375 7.171875 -15.550781 7.265625 -14.8125 C 7.359375 -14.070312 7.476562 -13.363281 7.625 -12.6875 C 7.78125 -12.019531 7.960938 -11.46875 8.171875 -11.03125 C 8.390625 -10.601562 8.625 -10.390625 8.875 -10.390625 C 9.125 -10.390625 9.347656 -10.601562 9.546875 -11.03125 C 9.753906 -11.46875 9.9375 -12.023438 10.09375 -12.703125 C 10.25 -13.390625 10.375 -14.101562 10.46875 -14.84375 C 10.5625 -15.582031 10.609375 -16.253906 10.609375 -16.859375 C 10.609375 -17.078125 10.675781 -17.253906 10.8125 -17.390625 C 10.945312 -17.523438 11.113281 -17.609375 11.3125 -17.640625 C 11.5625 -17.671875 11.875 -17.691406 12.25 -17.703125 C 12.632812 -17.710938 13.015625 -17.722656 13.390625 -17.734375 C 13.773438 -17.742188 14.078125 -17.75 14.296875 -17.75 C 14.628906 -17.75 15.035156 -17.742188 15.515625 -17.734375 C 16.003906 -17.722656 16.4375 -17.691406 16.8125 -17.640625 C 17.039062 -17.609375 17.222656 -17.507812 17.359375 -17.34375 C 17.492188 -17.1875 17.546875 -16.992188 17.515625 -16.765625 C 17.410156 -15.753906 17.195312 -14.753906 16.875 -13.765625 C 16.5625 -12.773438 16.148438 -11.851562 15.640625 -11 C 15.140625 -10.15625 14.5625 -9.441406 13.90625 -8.859375 C 13.25 -8.273438 12.546875 -7.894531 11.796875 -7.71875 C 11.546875 -7.644531 11.460938 -7.445312 11.546875 -7.125 C 11.773438 -5.90625 11.972656 -4.773438 12.140625 -3.734375 C 12.316406 -2.703125 12.460938 -1.691406 12.578125 -0.703125 C 12.609375 -0.515625 12.546875 -0.359375 12.390625 -0.234375 C 12.242188 -0.109375 12.078125 -0.03125 11.890625 0 C 11.660156 0.0195312 11.359375 0.0351562 10.984375 0.046875 C 10.617188 0.0664062 10.25 0.078125 9.875 0.078125 C 9.507812 0.0859375 9.203125 0.09375 8.953125 0.09375 Z M 8.953125 0.09375 "/></g></g></g></svg>